<svg id="Capa_1" data-name="Capa 1" xmlns="http://www.w3.org/2000/svg" viewBox="0 0 218.97 92.14"><path d="M18.62,48.4c-.11.24-.21.45-.28.63a1.9,1.9,0,0,1-.26.45,1,1,0,0,1-.35.28,1.39,1.39,0,0,1-.56.09H13.43c-1,0-1.51-.48-1.51-1.45V20.19A1.41,1.41,0,0,1,12,19.6a1.36,1.36,0,0,1,.32-.45,1.41,1.41,0,0,1,.46-.3,1.48,1.48,0,0,1,.5-.1H17.6a1.5,1.5,0,0,1,1.13.42,1.36,1.36,0,0,1,.42,1V28a10.09,10.09,0,0,1,1.13-1,7,7,0,0,1,1.32-.8,7.83,7.83,0,0,1,1.55-.52A8.52,8.52,0,0,1,25,25.49a11.53,11.53,0,0,1,4.73,1,11.2,11.2,0,0,1,3.72,2.62A12.13,12.13,0,0,1,35.93,33a13.94,13.94,0,0,1,0,9.75,12.28,12.28,0,0,1-2.44,3.94,11.37,11.37,0,0,1-3.72,2.63,11.53,11.53,0,0,1-4.73,1A7,7,0,0,1,23.2,50a8.83,8.83,0,0,1-1.65-.64,10.2,10.2,0,0,1-1.43-.9,11.83,11.83,0,0,1-1.16-1ZM30,37.88a6.78,6.78,0,0,0-.39-2.3,6.11,6.11,0,0,0-1.1-1.93,5.28,5.28,0,0,0-1.72-1.31,5.16,5.16,0,0,0-2.25-.49,5.69,5.69,0,0,0-2.33.49,5.94,5.94,0,0,0-1.88,1.31,6.32,6.32,0,0,0-1.26,1.93,6,6,0,0,0-.46,2.3v.26a6,6,0,0,0,1.81,4,6,6,0,0,0,4.12,1.64,5.45,5.45,0,0,0,2.25-.46,5.28,5.28,0,0,0,1.72-1.26,5.65,5.65,0,0,0,1.1-1.88A6.82,6.82,0,0,0,30,37.88Z" transform="translate(-10.58 -18.73)"/><path d="M60.33,47a12.44,12.44,0,0,1-3.73,2.39,11.5,11.5,0,0,1-4.4.86,12.62,12.62,0,0,1-11.69-7.5,11.86,11.86,0,0,1-1-4.93,12.51,12.51,0,0,1,3.37-8.64,11.46,11.46,0,0,1,2.39-1.95,12,12,0,0,1,2.87-1.27,11.62,11.62,0,0,1,3.26-.45,11,11,0,0,1,3,.42,11.14,11.14,0,0,1,2.77,1.17,12.2,12.2,0,0,1,2.37,1.81,12.67,12.67,0,0,1,1.85,2.31,10.84,10.84,0,0,1,1.2,2.69A10.28,10.28,0,0,1,63,36.82c0,.66,0,1.19,0,1.61a1.81,1.81,0,0,1-.3,1,1.46,1.46,0,0,1-.88.51,8.78,8.78,0,0,1-1.8.14H46.44a4.64,4.64,0,0,0,.76,2,4.78,4.78,0,0,0,1.33,1.29,5.44,5.44,0,0,0,1.61.69,6.64,6.64,0,0,0,1.6.21,7.55,7.55,0,0,0,1.4-.14,10.53,10.53,0,0,0,1.39-.38,8,8,0,0,0,1.22-.55,3.48,3.48,0,0,0,.9-.65,6,6,0,0,1,.52-.37,1,1,0,0,1,.46-.12.91.91,0,0,1,.5.17,3.78,3.78,0,0,1,.58.49l2,2.27a1.27,1.27,0,0,1,.27.44,1.84,1.84,0,0,1,.05.41,1.09,1.09,0,0,1-.2.65A2.53,2.53,0,0,1,60.33,47ZM51.25,31.25a3.68,3.68,0,0,0-1.42.29,5.65,5.65,0,0,0-1.3.79,6.68,6.68,0,0,0-1.08,1.11,7,7,0,0,0-.79,1.27h9.65a10.16,10.16,0,0,0-.86-1.36,6.1,6.1,0,0,0-1.05-1.1A4.56,4.56,0,0,0,53,31.52,5.39,5.39,0,0,0,51.25,31.25Z" transform="translate(-10.58 -18.73)"/><path d="M66.6,27.27a1.54,1.54,0,0,1,.13-.63,1.35,1.35,0,0,1,.35-.43,1.7,1.7,0,0,1,.5-.26,2,2,0,0,1,.53-.08H71a1,1,0,0,1,.76.28,2.38,2.38,0,0,1,.48.72,7.14,7.14,0,0,1,.35,1,7.65,7.65,0,0,0,.36,1L74,27.63a7.61,7.61,0,0,1,1.2-1.08,6,6,0,0,1,1.41-.77,5,5,0,0,1,1.75-.29,10,10,0,0,1,1.82.15,7.63,7.63,0,0,1,1.52.45,8.38,8.38,0,0,1,1.42.74c.48.3,1,.66,1.54,1.06A1.33,1.33,0,0,1,85.5,29a1.93,1.93,0,0,1-.32,1l-1.71,2.92a1.52,1.52,0,0,1-1.27.74,2.15,2.15,0,0,1-.85-.21,6,6,0,0,0-1.65-1.18,4.51,4.51,0,0,0-1.92-.39,3.63,3.63,0,0,0-1.29.21,3.52,3.52,0,0,0-1,.59,5.24,5.24,0,0,0-.85.9c-.27.36-.53.75-.8,1.18V48.4a1.51,1.51,0,0,1-.34,1.08,1.55,1.55,0,0,1-1.17.37H68.08A1.29,1.29,0,0,1,66.6,48.4Z" transform="translate(-10.58 -18.73)"/><path d="M88.45,26.21a1.18,1.18,0,0,1,.52-.27,2.35,2.35,0,0,1,.52-.05h2.85a1.35,1.35,0,0,1,.59.12,1.2,1.2,0,0,1,.41.33,1.8,1.8,0,0,1,.27.47c.07.18.14.36.2.55l.4,1.65a4.42,4.42,0,0,1,.91-1.2,7.11,7.11,0,0,1,1.57-1.13,10.13,10.13,0,0,1,2.16-.84,10.55,10.55,0,0,1,2.74-.33,8.68,8.68,0,0,1,3.85.83,8.55,8.55,0,0,1,2.87,2.26,10.11,10.11,0,0,1,1.79,3.34,13.31,13.31,0,0,1,.61,4.09V48.4a1.6,1.6,0,0,1-.31,1.08,1.22,1.22,0,0,1-1,.37h-4.36a1.75,1.75,0,0,1-1.12-.27,1.46,1.46,0,0,1-.3-1.07V36.22a3.3,3.3,0,0,0-.37-1.54,4.51,4.51,0,0,0-1-1.29,4.56,4.56,0,0,0-1.37-.87,3.9,3.9,0,0,0-1.56-.33A3.53,3.53,0,0,0,98,32.5a4.57,4.57,0,0,0-1.31.84,5.15,5.15,0,0,0-1,1.26,3.76,3.76,0,0,0-.46,1.58V48.45a1.87,1.87,0,0,1-.12.65,1.09,1.09,0,0,1-.37.49,1.5,1.5,0,0,1-.46.2,2,2,0,0,1-.5.06H89.49A1.33,1.33,0,0,1,88,48.4V27.28a1.34,1.34,0,0,1,.16-.66,1.17,1.17,0,0,1,.44-.47Z" transform="translate(-10.58 -18.73)"/><path d="M139.55,48.45a1.63,1.63,0,0,1-.12.62.93.93,0,0,1-.37.46.9.9,0,0,1-.5.26,2.33,2.33,0,0,1-.49.06h-3.72a1.69,1.69,0,0,1-.64-.1,1,1,0,0,1-.39-.3,1.46,1.46,0,0,1-.26-.46l-.22-.59-.24-.85a11.79,11.79,0,0,1-1.16,1,9.38,9.38,0,0,1-1.44.88,9.55,9.55,0,0,1-1.68.62,7.18,7.18,0,0,1-1.86.23,12.27,12.27,0,0,1-3.29-.43,12.18,12.18,0,0,1-5.43-3.16,12.23,12.23,0,0,1-1.92-2.5,12.42,12.42,0,0,1-1.67-6.31,12.35,12.35,0,0,1,3.59-8.81,12.3,12.3,0,0,1,8.72-3.58,8.4,8.4,0,0,1,2.18.27,8.17,8.17,0,0,1,1.85.71A7.63,7.63,0,0,1,132,27.56a8.07,8.07,0,0,1,1.19,1.37l.55-1.72.31-.76a1.28,1.28,0,0,1,.27-.44.72.72,0,0,1,.34-.19,2.94,2.94,0,0,1,.59-.05h2.81a2.33,2.33,0,0,1,.49.06,1,1,0,0,1,.5.27,1.11,1.11,0,0,1,.37.47,1.43,1.43,0,0,1,.12.6ZM121,37.88a7.07,7.07,0,0,0,.38,2.33,5.51,5.51,0,0,0,1.11,1.88,5.22,5.22,0,0,0,1.73,1.26,5.42,5.42,0,0,0,2.23.46,6,6,0,0,0,2.35-.46,5.9,5.9,0,0,0,1.89-1.26,5.55,5.55,0,0,0,1.26-1.88,6.11,6.11,0,0,0-1.26-6.56,5.87,5.87,0,0,0-1.89-1.31,5.71,5.71,0,0,0-2.35-.49,5.13,5.13,0,0,0-2.23.49,5.22,5.22,0,0,0-1.73,1.31,5.94,5.94,0,0,0-1.11,1.93A7,7,0,0,0,121,37.88Z" transform="translate(-10.58 -18.73)"/><path d="M143.7,27.27a1.54,1.54,0,0,1,.13-.63,1.35,1.35,0,0,1,.35-.43,1.77,1.77,0,0,1,.49-.26,2.14,2.14,0,0,1,.54-.08h2.85a1,1,0,0,1,.76.28,2.38,2.38,0,0,1,.48.72,7.14,7.14,0,0,1,.35,1,7.65,7.65,0,0,0,.36,1l1.12-1.22a7.61,7.61,0,0,1,1.2-1.08,6,6,0,0,1,1.41-.77,5,5,0,0,1,1.74-.29,10.11,10.11,0,0,1,1.83.15,7.63,7.63,0,0,1,1.52.45,8.77,8.77,0,0,1,1.42.74c.47.3,1,.66,1.54,1.06A1.33,1.33,0,0,1,162.6,29a1.93,1.93,0,0,1-.32,1l-1.72,2.92a1.5,1.5,0,0,1-1.26.74,2.11,2.11,0,0,1-.85-.21,6,6,0,0,0-1.65-1.18,4.51,4.51,0,0,0-1.92-.39,3.63,3.63,0,0,0-1.29.21,3.4,3.4,0,0,0-1,.59,4.88,4.88,0,0,0-.85.9c-.27.36-.53.75-.8,1.18V48.4a1.46,1.46,0,0,1-.35,1.08,1.52,1.52,0,0,1-1.16.37h-4.25a1.29,1.29,0,0,1-1.47-1.45Z" transform="translate(-10.58 -18.73)"/><path d="M181.58,47.49a11.83,11.83,0,0,1-1.16,1,10.7,10.7,0,0,1-1.42.9,8.73,8.73,0,0,1-1.64.64,7.08,7.08,0,0,1-1.86.24,11.53,11.53,0,0,1-4.73-1,11.37,11.37,0,0,1-3.72-2.63,12.28,12.28,0,0,1-2.44-3.94,14.09,14.09,0,0,1,0-9.75,12.13,12.13,0,0,1,2.44-3.93,11.2,11.2,0,0,1,3.72-2.62,11.53,11.53,0,0,1,4.73-1,9.36,9.36,0,0,1,1.9.18,6.65,6.65,0,0,1,1.56.52,7.2,7.2,0,0,1,1.31.81,11,11,0,0,1,1.12,1V20.17a1.44,1.44,0,0,1,.37-1,1.37,1.37,0,0,1,1.1-.42h4.25a1.43,1.43,0,0,1,.52.11,1.49,1.49,0,0,1,.5.29,1.46,1.46,0,0,1,.37.45,1.28,1.28,0,0,1,.14.59V48.4c0,1-.51,1.45-1.53,1.45h-3.7a1.46,1.46,0,0,1-.58-.09,1,1,0,0,1-.35-.28,1.9,1.9,0,0,1-.26-.45c-.07-.18-.17-.39-.28-.63Zm-11.05-9.61a6.82,6.82,0,0,0,.39,2.33,5.65,5.65,0,0,0,1.1,1.88,5.32,5.32,0,0,0,1.73,1.26,5.47,5.47,0,0,0,2.24.46,6,6,0,0,0,2.28-.44,5.83,5.83,0,0,0,1.86-1.2,6,6,0,0,0,1.81-4v-.26a6,6,0,0,0-.45-2.3,6.32,6.32,0,0,0-1.26-1.93,6.1,6.1,0,0,0-1.89-1.31,5.75,5.75,0,0,0-2.35-.49,5.18,5.18,0,0,0-2.24.49A5.32,5.32,0,0,0,172,33.65a6.11,6.11,0,0,0-1.1,1.93A6.78,6.78,0,0,0,170.53,37.88Z" transform="translate(-10.58 -18.73)"/><path d="M192.55,37.88a12.7,12.7,0,0,1,.44-3.34,12.94,12.94,0,0,1,1.25-3,12.58,12.58,0,0,1,1.93-2.49,12,12,0,0,1,2.5-1.92,12.54,12.54,0,0,1,3-1.22,12.7,12.7,0,0,1,3.34-.44,12.16,12.16,0,0,1,4.82,1,12.3,12.3,0,0,1,3.93,2.62A12.46,12.46,0,0,1,216.37,33a12.78,12.78,0,0,1,.53,8.21,12.51,12.51,0,0,1-1.25,3A12.27,12.27,0,0,1,205,50.28a12.69,12.69,0,0,1-3.34-.43,12.18,12.18,0,0,1-3-1.24,12,12,0,0,1-2.5-1.92,12.64,12.64,0,0,1-1.93-2.5,12.94,12.94,0,0,1-1.25-3A12.57,12.57,0,0,1,192.55,37.88Zm6.89,0a6.82,6.82,0,0,0,.39,2.33,5.49,5.49,0,0,0,1.1,1.88,5.14,5.14,0,0,0,1.71,1.26,5.59,5.59,0,0,0,2.28.46,5.31,5.31,0,0,0,2.22-.46,5,5,0,0,0,1.68-1.26,5.57,5.57,0,0,0,1.06-1.88,7.62,7.62,0,0,0,0-4.63,6,6,0,0,0-1.06-1.93,5,5,0,0,0-3.9-1.8,5.29,5.29,0,0,0-2.28.49,5.14,5.14,0,0,0-1.71,1.31,5.92,5.92,0,0,0-1.1,1.93A6.78,6.78,0,0,0,199.44,37.88Z" transform="translate(-10.58 -18.73)"/><path d="M36.6,83.07a1.63,1.63,0,0,1-.12.62.93.93,0,0,1-.37.46.87.87,0,0,1-.49.26,2.49,2.49,0,0,1-.49.06H31.41a1.93,1.93,0,0,1-.65-.1,1,1,0,0,1-.39-.3,1.68,1.68,0,0,1-.26-.46c-.07-.18-.14-.38-.21-.59l-.25-.85a11.79,11.79,0,0,1-1.16,1,9.42,9.42,0,0,1-3.12,1.5,7.64,7.64,0,0,1-1.86.23,12.32,12.32,0,0,1-3.29-.43,12,12,0,0,1-2.95-1.24,11.85,11.85,0,0,1-2.48-1.92,12.75,12.75,0,0,1-1.92-2.51,12,12,0,0,1-1.23-3,12.57,12.57,0,0,1-.44-3.33,12.35,12.35,0,0,1,3.59-8.81,12.13,12.13,0,0,1,3.91-2.63,12.29,12.29,0,0,1,4.81-1,8.86,8.86,0,0,1,2.18.26,8.48,8.48,0,0,1,1.85.72,7.25,7.25,0,0,1,1.52,1.09,8.07,8.07,0,0,1,1.19,1.37l.55-1.72.31-.77a1.22,1.22,0,0,1,.27-.43.7.7,0,0,1,.35-.19,2.75,2.75,0,0,1,.58,0h2.82a2.49,2.49,0,0,1,.49.06,1,1,0,0,1,.49.26,1.2,1.2,0,0,1,.37.48,1.4,1.4,0,0,1,.12.6ZM18,72.5a6.82,6.82,0,0,0,.39,2.33,5.42,5.42,0,0,0,1.1,1.88A5.06,5.06,0,0,0,21.22,78a5.28,5.28,0,0,0,2.24.47A5.94,5.94,0,0,0,25.81,78a5.78,5.78,0,0,0,1.88-1.25A5.65,5.65,0,0,0,29,74.83a6.21,6.21,0,0,0,0-4.64,5.93,5.93,0,0,0-1.26-1.92A5.79,5.79,0,0,0,25.81,67a5.62,5.62,0,0,0-2.35-.49,5,5,0,0,0-2.24.49,5.09,5.09,0,0,0-1.73,1.31,5.7,5.7,0,0,0-1.1,1.92A6.83,6.83,0,0,0,18,72.5Z" transform="translate(-10.58 -18.73)"/><path d="M40.75,54.8a1.71,1.71,0,0,1,.3-1,1.23,1.23,0,0,1,1-.41h4.63a.88.88,0,0,1,.4.1,1.47,1.47,0,0,1,.38.3,1.7,1.7,0,0,1,.31.45,1.4,1.4,0,0,1,.12.58V83a1.39,1.39,0,0,1-.41,1.08,1.48,1.48,0,0,1-1.05.37H42.09a1.28,1.28,0,0,1-1-.37,1.68,1.68,0,0,1-.3-1.08Z" transform="translate(-10.58 -18.73)"/><path d="M72.17,81.6A12.44,12.44,0,0,1,68.44,84a11.5,11.5,0,0,1-4.4.86,12.62,12.62,0,0,1-11.69-7.5,11.86,11.86,0,0,1-1-4.93,12.64,12.64,0,0,1,1.55-6.13,12.46,12.46,0,0,1,1.82-2.51,11.46,11.46,0,0,1,2.39-2A12,12,0,0,1,60,60.56a11.62,11.62,0,0,1,3.26-.45,11,11,0,0,1,3,.42A11.14,11.14,0,0,1,69,61.7a11.82,11.82,0,0,1,2.37,1.81,12.34,12.34,0,0,1,1.85,2.31,10.94,10.94,0,0,1,1.2,2.68,10.34,10.34,0,0,1,.42,2.94c0,.65,0,1.19,0,1.6a1.82,1.82,0,0,1-.3,1,1.46,1.46,0,0,1-.88.51,8.78,8.78,0,0,1-1.8.14H58.28a4.69,4.69,0,0,0,.76,2A4.78,4.78,0,0,0,60.37,78a5.44,5.44,0,0,0,1.61.69,6.64,6.64,0,0,0,1.6.21,7.55,7.55,0,0,0,1.4-.14,10.53,10.53,0,0,0,1.39-.38,8,8,0,0,0,1.22-.55,3.74,3.74,0,0,0,.9-.65,4.42,4.42,0,0,1,.52-.37,1,1,0,0,1,.46-.12.91.91,0,0,1,.5.17,3.78,3.78,0,0,1,.58.49l2,2.27a1.27,1.27,0,0,1,.27.44,1.84,1.84,0,0,1,.05.41,1.09,1.09,0,0,1-.2.65A2.53,2.53,0,0,1,72.17,81.6ZM63.09,65.87a3.64,3.64,0,0,0-1.42.29,5.45,5.45,0,0,0-1.3.79,6.32,6.32,0,0,0-1.08,1.11,7,7,0,0,0-.79,1.27h9.65A9.56,9.56,0,0,0,67.29,68a6.1,6.1,0,0,0-1.05-1.1,4.82,4.82,0,0,0-1.36-.74A5.68,5.68,0,0,0,63.09,65.87Z" transform="translate(-10.58 -18.73)"/><path d="M74.91,83.75a.7.7,0,0,1,.1-.52c.1-.17.18-.31.26-.42l7.52-10.6L75.67,62.09a2.2,2.2,0,0,1-.32-.53.93.93,0,0,1-.11-.52.57.57,0,0,1,.25-.39,1.2,1.2,0,0,1,.72-.16h5.93a.72.72,0,0,1,.56.27,7.57,7.57,0,0,1,.54.71l3.61,5.83c.23-.34.51-.77.83-1.29l1-1.62,1-1.64.8-1.34a3.22,3.22,0,0,1,.6-.7,1,1,0,0,1,.65-.22h6a1,1,0,0,1,.42.09.74.74,0,0,1,.31.27.57.57,0,0,1,.1.39,1,1,0,0,1-.25.49L90.85,72.16l7.34,10.27a3.52,3.52,0,0,1,.39.68,1.29,1.29,0,0,1,.14.66.65.65,0,0,1-.27.5,1.45,1.45,0,0,1-.86.2H91.47a1.35,1.35,0,0,1-1.26-1l-3.36-6-3.4,6.12a1.86,1.86,0,0,1-.53.66,1,1,0,0,1-.63.25H75.72a.94.94,0,0,1-.45-.11.9.9,0,0,1-.32-.42Z" transform="translate(-10.58 -18.73)"/><path d="M124.42,83.07a1.62,1.62,0,0,1-.11.62,1,1,0,0,1-.38.46.87.87,0,0,1-.49.26,2.41,2.41,0,0,1-.49.06h-3.72a1.87,1.87,0,0,1-.64-.1.94.94,0,0,1-.4-.3,1.67,1.67,0,0,1-.25-.46l-.22-.59-.25-.85a10.73,10.73,0,0,1-1.16,1,9.25,9.25,0,0,1-3.11,1.5,7.64,7.64,0,0,1-1.86.23,12.34,12.34,0,0,1-3.3-.43,12.32,12.32,0,0,1-5.43-3.16,12.33,12.33,0,0,1-1.91-2.51,12,12,0,0,1-1.24-3A12.56,12.56,0,0,1,99,72.5a12.39,12.39,0,0,1,3.58-8.81,12.13,12.13,0,0,1,3.91-2.63,12.33,12.33,0,0,1,4.82-1,8.86,8.86,0,0,1,2.18.26,8.68,8.68,0,0,1,1.85.72,7.25,7.25,0,0,1,1.52,1.09,8.54,8.54,0,0,1,1.19,1.37l.55-1.72c.12-.32.23-.57.31-.77a1.39,1.39,0,0,1,.26-.43.75.75,0,0,1,.35-.19,2.94,2.94,0,0,1,.59,0H123a2.41,2.41,0,0,1,.49.06,1,1,0,0,1,.49.26,1.23,1.23,0,0,1,.38.48,1.4,1.4,0,0,1,.11.6ZM105.82,72.5a6.82,6.82,0,0,0,.39,2.33,5.61,5.61,0,0,0,1.11,1.88A5,5,0,0,0,109,78a5.32,5.32,0,0,0,2.24.47,5.91,5.91,0,0,0,2.35-.47,5.76,5.76,0,0,0,3.15-3.13,6.21,6.21,0,0,0,0-4.64,6.09,6.09,0,0,0-1.26-1.92A5.83,5.83,0,0,0,113.63,67a5.59,5.59,0,0,0-2.35-.49,5.16,5.16,0,0,0-4,1.8,5.9,5.9,0,0,0-1.11,1.92A6.83,6.83,0,0,0,105.82,72.5Z" transform="translate(-10.58 -18.73)"/><path d="M129.07,60.83a1.18,1.18,0,0,1,.52-.27,2.37,2.37,0,0,1,.52-.06H133a1.27,1.27,0,0,1,.58.13A1.14,1.14,0,0,1,134,61a1.8,1.8,0,0,1,.27.47c.07.17.14.36.2.54l.4,1.66a4.42,4.42,0,0,1,.91-1.2,7.11,7.11,0,0,1,1.57-1.13,9.73,9.73,0,0,1,2.16-.84,10.55,10.55,0,0,1,2.74-.33,8.6,8.6,0,0,1,3.84.83,8.36,8.36,0,0,1,2.87,2.26,10,10,0,0,1,1.8,3.34,13.31,13.31,0,0,1,.61,4.09V83A1.62,1.62,0,0,1,151,84.1a1.22,1.22,0,0,1-1,.37h-4.36a1.71,1.71,0,0,1-1.12-.27,1.46,1.46,0,0,1-.3-1.07V70.84a3.27,3.27,0,0,0-.37-1.54,4.38,4.38,0,0,0-1-1.29,4.79,4.79,0,0,0-1.37-.88,4.07,4.07,0,0,0-1.56-.32,3.44,3.44,0,0,0-1.39.31,4.66,4.66,0,0,0-1.3.84,5,5,0,0,0-1,1.26,3.76,3.76,0,0,0-.46,1.58V83.07a1.77,1.77,0,0,1-.12.64,1.13,1.13,0,0,1-.37.5,1.6,1.6,0,0,1-.46.2,2,2,0,0,1-.51.06h-4.26A1.33,1.33,0,0,1,128.58,83V61.9a1.34,1.34,0,0,1,.16-.66,1.11,1.11,0,0,1,.44-.47Z" transform="translate(-10.58 -18.73)"/><path d="M172.57,82.11a10.77,10.77,0,0,1-1.16,1A10,10,0,0,1,170,84a9.27,9.27,0,0,1-1.65.64,7,7,0,0,1-1.86.24,11.56,11.56,0,0,1-4.73-1A11.37,11.37,0,0,1,158,81.31a12.26,12.26,0,0,1-2.43-3.94,13.94,13.94,0,0,1,0-9.75A12.11,12.11,0,0,1,158,63.69a11.22,11.22,0,0,1,3.72-2.63,11.72,11.72,0,0,1,4.73-1,9.22,9.22,0,0,1,1.9.18,6.73,6.73,0,0,1,1.57.52,7.12,7.12,0,0,1,1.3.81,11,11,0,0,1,1.13,1V54.79a1.48,1.48,0,0,1,.36-1,1.41,1.41,0,0,1,1.11-.42h4.25a1.49,1.49,0,0,1,.52.1,1.71,1.71,0,0,1,.5.3,1.49,1.49,0,0,1,.37.45,1.28,1.28,0,0,1,.14.59V83c0,1-.51,1.45-1.53,1.45h-3.7a1.52,1.52,0,0,1-.59-.09,1.06,1.06,0,0,1-.35-.28,1.9,1.9,0,0,1-.25-.45c-.08-.18-.17-.4-.29-.63Zm-11-9.61a6.82,6.82,0,0,0,.39,2.33,5.42,5.42,0,0,0,1.1,1.88A5.06,5.06,0,0,0,164.75,78a5.27,5.27,0,0,0,2.23.47,6,6,0,0,0,2.28-.44,5.83,5.83,0,0,0,1.86-1.2A6.13,6.13,0,0,0,172.4,75a5.79,5.79,0,0,0,.53-2.23V72.5a6,6,0,0,0-.45-2.31,5.93,5.93,0,0,0-1.26-1.92A5.79,5.79,0,0,0,169.34,67a5.64,5.64,0,0,0-2.36-.49,5,5,0,0,0-2.23.49A5.09,5.09,0,0,0,163,68.27a5.7,5.7,0,0,0-1.1,1.92A6.83,6.83,0,0,0,161.53,72.5Z" transform="translate(-10.58 -18.73)"/><path d="M204.37,81.6A12.37,12.37,0,0,1,200.63,84a11.43,11.43,0,0,1-4.4.86,12.9,12.9,0,0,1-8.93-3.56,12.59,12.59,0,0,1-2.75-3.94,11.86,11.86,0,0,1-1-4.93,12.64,12.64,0,0,1,1.55-6.13,12.46,12.46,0,0,1,1.82-2.51,11.21,11.21,0,0,1,2.39-2,12,12,0,0,1,2.87-1.27,11.62,11.62,0,0,1,3.26-.45,11,11,0,0,1,3,.42,11.31,11.31,0,0,1,2.77,1.17,11.82,11.82,0,0,1,2.37,1.81,12.34,12.34,0,0,1,1.85,2.31,10.94,10.94,0,0,1,1.2,2.68,10.34,10.34,0,0,1,.42,2.94c0,.65,0,1.19,0,1.6a1.74,1.74,0,0,1-.29,1,1.46,1.46,0,0,1-.88.51,8.92,8.92,0,0,1-1.8.14H190.48a4.69,4.69,0,0,0,.76,2A4.78,4.78,0,0,0,192.57,78a5.33,5.33,0,0,0,1.61.69,6.64,6.64,0,0,0,1.6.21,7.64,7.64,0,0,0,1.4-.14,10.53,10.53,0,0,0,1.39-.38,8,8,0,0,0,1.22-.55,4,4,0,0,0,.9-.65,4.42,4.42,0,0,1,.52-.37.93.93,0,0,1,.46-.12.91.91,0,0,1,.5.17,3.78,3.78,0,0,1,.58.49l2,2.27a1.27,1.27,0,0,1,.27.44,1.84,1.84,0,0,1,0,.41,1,1,0,0,1-.21.65A2.24,2.24,0,0,1,204.37,81.6Zm-9.08-15.73a3.73,3.73,0,0,0-1.43.29,5.39,5.39,0,0,0-1.29.79,6.32,6.32,0,0,0-1.08,1.11,6.46,6.46,0,0,0-.79,1.27h9.65a9.56,9.56,0,0,0-.86-1.36,5.82,5.82,0,0,0-1.06-1.1,4.69,4.69,0,0,0-1.36-.74A5.61,5.61,0,0,0,195.29,65.87Z" transform="translate(-10.58 -18.73)"/><path d="M210.64,61.89a1.54,1.54,0,0,1,.13-.63,1.35,1.35,0,0,1,.35-.43,1.54,1.54,0,0,1,.49-.26,2.14,2.14,0,0,1,.54-.08H215a1,1,0,0,1,.76.28,2.38,2.38,0,0,1,.48.72,7.14,7.14,0,0,1,.35,1,8.8,8.8,0,0,0,.36,1l1.12-1.23a8.06,8.06,0,0,1,1.2-1.07,6,6,0,0,1,1.41-.77,5,5,0,0,1,1.74-.29,10.11,10.11,0,0,1,1.83.15,7.63,7.63,0,0,1,1.52.45,8.38,8.38,0,0,1,1.42.74c.48.3,1,.66,1.54,1.06a1.32,1.32,0,0,1,.81,1.11,1.93,1.93,0,0,1-.32,1l-1.72,2.92a1.5,1.5,0,0,1-1.26.74,2.11,2.11,0,0,1-.85-.21,6,6,0,0,0-1.65-1.18,4.51,4.51,0,0,0-1.92-.39,3.63,3.63,0,0,0-1.29.21,3.52,3.52,0,0,0-1,.59,4.88,4.88,0,0,0-.85.9c-.27.36-.53.75-.8,1.17V83a1.48,1.48,0,0,1-.35,1.08,1.52,1.52,0,0,1-1.16.37h-4.25A1.29,1.29,0,0,1,210.64,83Z" transform="translate(-10.58 -18.73)"/><path d="M20.53,97.27v8.8c0,3.31-1.6,4.8-4.78,4.8a6.51,6.51,0,0,1-4.51-1.57l.51-.72a5.82,5.82,0,0,0,4,1.44c2.63,0,3.86-1.21,3.86-3.84v-1.66a4.54,4.54,0,0,1-4.1,2.25,4.79,4.79,0,1,1,0-9.58,4.53,4.53,0,0,1,4.14,2.31V97.27Zm-.92,4.7a3.83,3.83,0,0,0-4-3.93,3.94,3.94,0,1,0,0,7.88A3.84,3.84,0,0,0,19.61,102Z" transform="translate(-10.58 -18.73)"/><path d="M33,97.19v.93l-.23,0c-2.19,0-3.5,1.45-3.5,3.89v5.14h-.94V97.27h.91v2.15A3.74,3.74,0,0,1,33,97.19Z" transform="translate(-10.58 -18.73)"/><path d="M46.48,100.88v6.25h-.91v-1.76A3.77,3.77,0,0,1,42,107.2c-2.21,0-3.55-1.13-3.55-2.81,0-1.49.94-2.76,3.68-2.76h3.38v-.79c0-1.83-1-2.82-2.93-2.82a5.14,5.14,0,0,0-3.4,1.25l-.47-.68a6,6,0,0,1,4-1.4C45.12,97.19,46.48,98.44,46.48,100.88Zm-.95,3.34v-1.85H42.17c-2,0-2.76.85-2.76,2,0,1.29,1,2.08,2.74,2.08A3.37,3.37,0,0,0,45.53,104.22Z" transform="translate(-10.58 -18.73)"/><path d="M64,102.2a4.76,4.76,0,0,1-4.87,5,4.4,4.4,0,0,1-4-2.32v5.91h-1V97.27h.91v2.32a4.4,4.4,0,0,1,4-2.4A4.78,4.78,0,0,1,64,102.2Zm-.94,0a4,4,0,1,0-4,4.15A3.93,3.93,0,0,0,63,102.2Z" transform="translate(-10.58 -18.73)"/><path d="M79.49,101.37v5.76h-.95v-5.69c0-2.23-1.19-3.4-3.19-3.4a3.52,3.52,0,0,0-3.74,3.84v5.25h-1v-14h1v6.22a4.08,4.08,0,0,1,3.87-2.14C77.88,97.19,79.49,98.61,79.49,101.37Z" transform="translate(-10.58 -18.73)"/><path d="M86.85,94.11a.78.78,0,0,1,.77-.77.77.77,0,1,1-.77.77Zm.3,3.16h.94v9.86h-.94Z" transform="translate(-10.58 -18.73)"/><path d="M94.78,102.2a4.8,4.8,0,0,1,5-5A4.32,4.32,0,0,1,103.5,99l-.7.51a3.57,3.57,0,0,0-3-1.48,4.16,4.16,0,0,0,0,8.31,3.58,3.58,0,0,0,3-1.47l.7.51a4.36,4.36,0,0,1-3.74,1.81A4.81,4.81,0,0,1,94.78,102.2Z" transform="translate(-10.58 -18.73)"/><path d="M127.5,93.11v14h-.92v-2.32a4.37,4.37,0,0,1-4,2.39,5,5,0,0,1,0-10,4.42,4.42,0,0,1,4,2.36V93.11Zm-.94,9.09a4,4,0,1,0-4,4.15A3.91,3.91,0,0,0,126.56,102.2Z" transform="translate(-10.58 -18.73)"/><path d="M143.59,102.43h-8.48a4.23,4.23,0,0,0,7.33,2.55l.55.62a4.71,4.71,0,0,1-3.72,1.6,4.84,4.84,0,0,1-5.09-5,4.72,4.72,0,0,1,4.73-5,4.67,4.67,0,0,1,4.7,5C143.61,102.24,143.59,102.33,143.59,102.43Zm-8.46-.74h7.56a3.78,3.78,0,0,0-7.56,0Z" transform="translate(-10.58 -18.73)"/><path d="M148.86,105.94l.43-.76a5.71,5.71,0,0,0,3.55,1.19c2.08,0,2.91-.73,2.91-1.85,0-2.87-6.54-.75-6.54-4.63,0-1.49,1.25-2.7,3.75-2.7a6,6,0,0,1,3.38,1l-.44.75a5.11,5.11,0,0,0-3-.89c-1.93,0-2.78.8-2.78,1.86,0,3,6.54.86,6.54,4.62,0,1.61-1.38,2.7-3.9,2.7A6.15,6.15,0,0,1,148.86,105.94Z" transform="translate(-10.58 -18.73)"/><path d="M162.81,94.11a.78.78,0,0,1,.78-.77.77.77,0,1,1-.78.77Zm.3,3.16h.95v9.86h-.95Z" transform="translate(-10.58 -18.73)"/><path d="M180.7,97.27v8.8c0,3.31-1.61,4.8-4.78,4.8a6.52,6.52,0,0,1-4.52-1.57l.51-.72a5.83,5.83,0,0,0,4,1.44c2.62,0,3.85-1.21,3.85-3.84v-1.66a4.54,4.54,0,0,1-4.1,2.25,4.79,4.79,0,1,1,0-9.58,4.51,4.51,0,0,1,4.14,2.31V97.27Zm-.93,4.7a4,4,0,1,0-4,4A3.83,3.83,0,0,0,179.77,102Z" transform="translate(-10.58 -18.73)"/><path d="M197.29,101.37v5.76h-.94v-5.69c0-2.23-1.19-3.4-3.19-3.4a3.52,3.52,0,0,0-3.74,3.84v5.25h-.95V97.27h.91V99.4a4.07,4.07,0,0,1,3.91-2.21C195.69,97.19,197.29,98.61,197.29,101.37Z" transform="translate(-10.58 -18.73)"/><path d="M213.31,102.43h-8.49a4.23,4.23,0,0,0,7.33,2.55l.55.62a4.71,4.71,0,0,1-3.72,1.6,4.84,4.84,0,0,1-5.08-5,4.72,4.72,0,1,1,9.43,0C213.33,102.24,213.31,102.33,213.31,102.43Zm-8.47-.74h7.56a3.78,3.78,0,0,0-7.56,0Z" transform="translate(-10.58 -18.73)"/><path d="M224.69,97.19v.93l-.23,0c-2.19,0-3.49,1.45-3.49,3.89v5.14H220V97.27h.9v2.15A3.76,3.76,0,0,1,224.69,97.19Z" transform="translate(-10.58 -18.73)"/></svg>